# Blender v2.76 (sub 0) OBJ File: ''
# www.blender.org
mtllib grass.mtl
o Plane_Material.001
v 0.613616 -0.002681 0.011829
v 0.613616 1.197319 0.011829
v -0.586384 1.197319 0.011829
v -0.586384 -0.002681 0.011829
v 0.013617 -0.002681 -0.588171
v 0.013616 1.197319 -0.588172
v 0.013616 1.197319 0.611829
v 0.013616 -0.002681 0.611829
vt 0.999900 0.000100
vt 0.999900 0.999900
vt 0.000100 0.999900
vt 0.000100 0.000100
vn 0.000000 0.000000 1.000000
vn 1.000000 0.000000 0.000000
usemtl Material.001
s 1
f 1/1/1 2/2/1 3/3/1 4/4/1
f 5/1/2 6/2/2 7/3/2 8/4/2
